<svg aria-hidden="true" style="position: absolute; width: 0; height: 0; overflow: hidden;" version="1.1" xmlns="http://www.w3.org/2000/svg">  
	<defs>

		<symbol id="icon-call" viewBox="0 0 48 48"> 
    	<title>Phone</title>
				<path d="M28.0993 12C30.0528 12.3811 31.8481 13.3365 33.2555 14.7439C34.6628 16.1512 35.6182 17.9465 35.9993 19.9M28.0993 4C32.1579 4.45087 35.9425 6.26835 38.8318 9.15402C41.7211 12.0397 43.5433 15.822 43.9993 19.88M20.4533 27.7261C18.0501 25.323 16.1525 22.6057 14.7606 19.7065C14.6408 19.4571 14.581 19.3324 14.535 19.1746C14.3715 18.6139 14.4889 17.9254 14.8289 17.4505C14.9246 17.3169 15.0389 17.2026 15.2676 16.974C15.9668 16.2747 16.3164 15.9251 16.5449 15.5736C17.4069 14.2478 17.4069 12.5386 16.5449 11.2129C16.3164 10.8613 15.9668 10.5117 15.2676 9.81249L14.8778 9.42275C13.8149 8.35986 13.2835 7.82842 12.7127 7.53973C11.5776 6.96559 10.2371 6.96559 9.10195 7.53973C8.53119 7.82842 7.99975 8.35987 6.93686 9.42275L6.62159 9.73802C5.56235 10.7973 5.03273 11.3269 4.62823 12.047C4.17939 12.846 3.85666 14.0869 3.85939 15.0034C3.86185 15.8293 4.02206 16.3937 4.34247 17.5226C6.06441 23.5894 9.31336 29.3141 14.0893 34.0901C18.8653 38.8661 24.59 42.115 30.6568 43.8369C31.7857 44.1574 32.3501 44.3176 33.176 44.32C34.0925 44.3228 35.3335 44 36.1325 43.5512C36.8525 43.1467 37.3822 42.6171 38.4414 41.5578L38.7567 41.2426C39.8196 40.1797 40.351 39.6482 40.6397 39.0775C41.2138 37.9423 41.2138 36.6018 40.6397 35.4667C40.351 34.8959 39.8196 34.3645 38.7567 33.3016L38.3669 32.9119C37.6677 32.2127 37.3181 31.863 36.9666 31.6345C35.6408 30.7725 33.9316 30.7725 32.6058 31.6345C32.2543 31.863 31.9047 32.2127 31.2055 32.9119C30.9768 33.1405 30.8625 33.2548 30.7289 33.3505C30.254 33.6905 29.5655 33.8079 29.0048 33.6445C28.847 33.5985 28.7223 33.5386 28.473 33.4189C25.5737 32.0269 22.8564 30.1293 20.4533 27.7261Z"
				style="stroke:var(--stroke-color, var(--accent)); stroke-width: var(--stroke-width, 2px); stroke-linecap: round; stroke-linejoin: round;"/>
		</symbol>

		<symbol id="icon-menu" viewBox="0 0 48 48"> 
    	<title>Menu</title>
				<path d="M6.875 31.625H37.125M6.875 22H22M6.875 12.375H37.125"
				style="stroke:var(--stroke-color, var(--accent)); stroke-width: var(--stroke-width, 2px); stroke-linecap: round; stroke-linejoin: round;"/>
		</symbol>

		<symbol id="icon-close" viewBox="0 0 44 44" fill="none"> 
    	<title>Close</title>
				<path d="M11 33L33 11M11 11L33 33"
				style="stroke:var(--stroke-color, var(--accent)); stroke-width: var(--stroke-width, 2px); stroke-linecap: round; stroke-linejoin: round;"/>
		</symbol>

		<symbol id="icon-arr-left" viewBox="0 0 44 44" fill="none"> 
    	<title>Arrow left</title>
				<path d="M26 11L15 22L26 33"
				style="stroke:var(--stroke-color, var(--accent)); stroke-width: var(--stroke-width, 2px); stroke-linecap: round; stroke-linejoin: round;"/>
		</symbol>

		<symbol id="icon-arr-right" viewBox="0 0 44 44" fill="none"> 
    	<title>Arrow right</title>
				<path d="M18 33L29 22L18 11"
				style="stroke:var(--stroke-color, var(--accent)); stroke-width: var(--stroke-width, 2px); stroke-linecap: round; stroke-linejoin: round;"/>
		</symbol>

		<symbol id="icon-arrow" viewBox="0 0 40 40"> 
    	<title>Arrow</title>
				<path d="M13 20.5L19 26.5M19 26.5L25 20.5M19 26.5L19 11.5M37 19C37 28.9411 28.9411 37 19 37C9.05887 37 1 28.9411 1 19C1 9.05887 9.05887 1 19 1C28.9411 1 37 9.05887 37 19Z" stroke="#D76F2C" stroke-linecap="round" stroke-linejoin="round"
				style="stroke:var(--stroke-color, var(--accent)); stroke-width: var(--stroke-width, var(--icons-width)); stroke-linecap: round; stroke-linejoin: round;"/>
		</symbol>

	</defs>
</svg>
