<svg aria-hidden="true" style="position: absolute; width: 0; height: 0; overflow: hidden;" version="1.1" xmlns="http://www.w3.org/2000/svg">  
	<defs>  
		<symbol id="icon-mate" viewBox="0 0 48 48"> 
    	<title>Mate</title>
			<path d="M9.11242 46.4539C7.51427 46.3009 5.95266 45.7789 4.55542 45.0003C3.68785 44.5143 2.94357 43.7267 2.4002 42.9121C1.834 42.0616 1.51437 41.1255 1.51437 40.0994C1.51437 35.149 1.51437 30.1941 1.51437 25.2436C1.51437 24.6361 1.8751 24.2536 2.40934 24.2581C2.94814 24.2626 3.29973 24.6676 3.29973 25.3066C3.29973 28.6774 3.29973 32.0482 3.29973 35.4145C3.29973 35.572 3.29973 35.7295 3.29973 35.8555C7.82477 32.6693 12.3087 32.6648 16.8338 35.8555C16.8383 35.788 16.8566 35.6665 16.8566 35.545C16.8566 26.4182 16.8566 17.2915 16.8566 8.16469C16.8566 6.87308 16.3041 5.847 15.3361 5.01893C12.5553 2.63822 7.48688 2.66973 4.73806 5.09093C3.78374 5.9325 3.26777 6.95409 3.28147 8.2547C3.318 11.1259 3.2906 13.9972 3.2906 16.8684C3.2906 17.0169 3.29973 17.161 3.28147 17.3095C3.21754 17.809 2.82029 18.1375 2.33628 18.1105C1.86597 18.0835 1.5372 17.737 1.50981 17.2375C1.50067 17.107 1.50981 16.9719 1.50981 16.8414C1.50981 13.9837 1.54177 11.1259 1.50067 8.2727C1.47328 6.31504 2.28148 4.78041 3.77918 3.5788C5.89786 1.87766 8.38184 1.31061 11.0485 1.55363C11.9982 1.63914 12.9617 1.85516 13.8612 2.17469C16.4228 3.07926 17.6831 4.46088 18.6237 7.19711C18.8018 7.19711 18.9935 7.19711 19.1853 7.19711C26.8564 7.19711 34.5275 7.19711 42.1986 7.19711C44.3904 7.19711 46.0616 8.53823 46.4406 10.5904C46.5045 10.9324 46.4999 11.2925 46.4999 11.639C46.4999 21.7648 46.4999 31.8862 46.4999 42.0121C46.4999 44.4468 45.3767 45.8599 42.984 46.4539C42.9566 46.4584 42.9383 46.4854 42.9109 46.5034H10.0941C9.76538 46.5034 9.44118 46.4854 9.11242 46.4539ZM15.9753 44.7393C16.231 44.7393 16.3726 44.7393 16.5141 44.7393C25.0619 44.7393 33.6097 44.7393 42.1575 44.7393C43.7374 44.7393 44.7191 43.7807 44.7191 42.2236C44.7191 31.9717 44.7191 21.7153 44.7191 11.4635C44.7191 9.90184 43.7511 8.95676 42.1575 8.95676C34.4864 8.95676 26.8153 8.95676 19.1488 8.95676H18.6511C18.6511 9.20428 18.6511 9.3933 18.6511 9.58231C18.6511 19.6317 18.6465 29.681 18.6556 39.7259C18.6556 41.58 17.9205 43.0697 16.537 44.2803C16.3863 44.4108 16.2265 44.5368 15.9845 44.7393H15.9753ZM10.0256 44.7438C11.7197 44.7123 13.295 44.3658 14.7014 43.4477C14.9708 43.2722 15.2356 43.0697 15.473 42.8536C17.3086 41.184 17.3178 38.8258 15.4776 37.1562C14.1534 35.9546 12.537 35.4235 10.7745 35.302C8.62841 35.1535 6.63301 35.59 4.92071 36.9356C2.75636 38.6368 2.75636 41.3595 4.91158 43.0697C6.41383 44.2623 8.16723 44.6988 10.0256 44.7483V44.7438Z" fill="#D76F2C"/>
			<path d="M1.51929 21.1621C1.53299 20.6896 1.92567 20.3071 2.40512 20.3116C2.89369 20.3116 3.30921 20.7391 3.29551 21.2161C3.27725 21.6797 2.87086 22.0667 2.40055 22.0667C1.90284 22.0667 1.51015 21.6662 1.52385 21.1666L1.51929 21.1621Z" fill="#D76F2C"/>
			<path d="M10.0627 37.2103C10.9576 37.2328 11.7978 37.4398 12.5193 37.9934C13.9256 39.0735 13.9256 40.9411 12.5193 42.0167C11.1905 43.0383 9.03529 43.0518 7.68372 42.0527C6.19059 40.9456 6.20886 39.006 7.72025 37.9214C8.41887 37.4218 9.21337 37.2283 10.0627 37.2058V37.2103ZM9.79327 38.988C9.60149 39.015 9.41428 39.0645 9.2362 39.1365C8.96224 39.249 8.67914 39.393 8.48736 39.6225C8.27275 39.8745 8.38234 40.2481 8.58325 40.4821C8.76133 40.6891 9.01703 40.8196 9.2773 40.9051C9.81154 41.0761 10.4006 41.0626 10.9302 40.8781C11.3229 40.7386 11.8298 40.3966 11.7795 39.924C11.7567 39.7125 11.6197 39.5955 11.4553 39.465C11.1038 39.1815 10.6608 39.006 10.2088 38.979C10.0718 38.97 9.93026 38.979 9.79327 38.9925V38.988Z" fill="#D76F2C"/>
		</symbol>

		<symbol id="icon-yoga" viewBox="0 0 48 48"> 
    	<title>Yoga</title>
			<path d="M47.9884 43.5859C47.683 44.1123 47.225 44.25 46.6494 44.25C31.5414 44.2379 16.4373 44.2419 1.32932 44.2379C1.09834 44.2379 0.855607 44.2298 0.636367 44.169C0.229206 44.0516 -0.0252696 43.6345 0.00213545 43.2052C0.0295405 42.7517 0.354486 42.3832 0.796882 42.3224C0.996547 42.2941 1.20404 42.3022 1.40371 42.3022C7.4015 42.3022 13.4032 42.3022 19.401 42.3022C19.585 42.3022 19.7729 42.3022 20.0196 42.3022C19.9491 42.1281 19.8747 42.0066 19.8473 41.8729C19.6946 41.221 19.448 40.569 19.4284 39.9089C19.3697 38.1191 19.401 36.3211 19.4088 34.5272C19.4127 32.8264 20.0117 31.3807 21.2019 30.2023C22.0241 29.3883 22.854 28.5865 23.6879 27.7726C20.9044 26.7035 18.1756 25.5859 15.3959 24.6059C11.246 23.1481 7.30362 21.2246 3.41602 19.1634C2.68783 18.7787 2.54298 18.2887 2.94231 17.5436C4.0111 15.5512 6.34053 14.6117 8.46247 15.3083C8.69345 15.3852 8.94793 15.4135 9.19066 15.4135C10.42 15.4216 11.5201 15.8063 12.5145 16.5474C12.7377 16.7134 12.9843 16.8633 13.2388 16.9685C14.3741 17.4221 15.5134 17.8635 16.6527 18.2968C16.8797 18.3818 17.1264 18.4183 17.4317 18.3778C17.3378 18.2684 17.2477 18.155 17.146 18.0498C16.2416 17.1103 15.3216 16.191 14.4329 15.2354C12.6437 13.3159 12.0604 11.036 12.816 8.49295C13.5637 5.97011 15.2785 4.41106 17.7841 3.89272C19.8943 3.45943 21.8048 4.01421 23.3708 5.53682C24.929 7.05133 26.4128 8.65088 27.924 10.218C28.3507 10.6635 28.3664 11.2547 27.9944 11.6435C27.6108 12.0444 27.0587 12.0363 26.6164 11.5949C26.2327 11.2142 25.8764 10.8093 25.5436 10.4529C24.6158 11.4126 23.7192 12.34 22.7796 13.3159C23.4295 14.1258 24.1382 15.0005 24.8429 15.8792C25.8647 17.1427 26.8787 18.4142 27.9122 19.6655C28.7344 20.6657 29.1963 21.7915 29.165 23.1157C29.165 23.2534 29.2277 23.4437 29.3255 23.5287C30.4257 24.4763 31.7059 24.8894 33.1427 24.8529C33.1779 24.3224 33.1309 23.8041 33.268 23.3425C33.4794 22.6257 33.7808 21.9332 34.1097 21.2651C34.2389 21.0059 34.3093 20.8075 34.1723 20.5645C33.6438 19.6372 33.1231 18.7058 32.5711 17.7946C32.3088 17.3613 32.2579 16.9442 32.5241 16.5838C32.7903 16.2194 33.1583 16.0939 33.5616 16.2437C33.7691 16.3206 33.9805 16.4867 34.1058 16.6729C34.6069 17.4302 35.0767 18.2077 35.5543 18.9852C35.6365 19.1188 35.6953 19.2687 35.8832 19.4266C35.9262 19.2646 35.9928 19.1107 36.0163 18.9447C36.3804 16.187 39.2775 14.8102 41.4072 16.4057C42.5622 17.2723 42.9889 18.475 42.7932 19.9328C42.7658 20.1474 42.8049 20.4187 42.9145 20.5969C44.1595 22.6459 43.9403 25.1364 42.3273 26.8898C41.5834 27.6997 40.8396 28.5015 39.7904 28.9105C37.6958 29.7245 35.3468 28.9955 34.0588 27.0842C33.8865 26.8291 33.7338 26.7157 33.4167 26.7602C33.0526 26.8129 32.6729 26.7724 32.3244 26.7724C32.2892 26.8372 32.2579 26.8655 32.2618 26.8898C32.4066 28.4651 31.7489 29.5989 30.5353 30.5141C28.8166 31.8059 27.1566 33.1746 25.4575 34.4948C25.2187 34.681 25.1208 34.8633 25.1287 35.1751C25.1482 36.2401 25.1365 37.3051 25.1365 38.2041C25.8999 38.7629 26.6594 39.1638 27.2036 39.7672C27.7165 40.3382 28.0571 41.1035 28.3703 41.8284C28.519 42.1686 28.6326 42.286 28.9849 42.286C34.9044 42.2738 40.8278 42.286 46.7473 42.2698C47.3228 42.2698 47.7535 42.4237 48.0001 42.9825V43.5656L47.9884 43.5859ZM24.0638 9.09228C23.3317 8.30262 22.6818 7.48463 21.9105 6.80836C20.6577 5.7069 19.1778 5.42343 17.604 5.92962C14.2997 6.99464 13.2897 11.2345 15.7287 13.8383C17.283 15.4986 18.8764 17.1184 20.4659 18.7382C20.7008 18.9771 21.0101 19.1512 21.3076 19.3132C21.981 19.6817 22.6818 20.0016 23.3434 20.3904C23.8406 20.686 23.9541 21.2691 23.6762 21.7308C23.4139 22.1681 22.8814 22.3017 22.3999 22.0466C22.2355 21.9575 22.0749 21.8522 21.9144 21.755C20.6029 20.9937 19.2013 20.5078 17.7019 20.4187C16.9111 20.3742 16.1672 20.2162 15.4351 19.9085C14.5581 19.54 13.6655 19.212 12.7494 18.8516C12.3853 19.6129 12.0408 20.3418 11.6806 21.099C12.9256 21.5769 14.1079 22.0264 15.2902 22.4799C18.0229 23.5287 20.7517 24.5856 23.4883 25.6223C24.7528 26.1042 26.0526 25.6952 26.7847 24.6261C27.5207 23.553 27.4502 22.164 26.6046 21.0828C26.3501 20.7548 26.0839 20.439 25.8255 20.115C23.9816 17.8351 22.1376 15.5593 20.2975 13.2754C19.9178 12.8057 19.8708 12.4007 20.1214 11.9958C20.368 11.5989 20.7204 11.4977 21.2763 11.6273C21.3898 11.6516 21.5621 11.6313 21.6404 11.5584C22.4704 10.7283 23.2847 9.88193 24.0677 9.08418L24.0638 9.09228ZM26.5146 42.29C26.2444 41.3506 25.6415 40.7107 24.7058 40.326C23.637 39.8846 23.2573 39.3056 23.2534 38.115C23.2534 36.9528 23.2729 35.7906 23.2455 34.6243C23.2338 34.0493 23.4374 33.6565 23.8798 33.3123C25.8373 31.7897 27.783 30.2468 29.7288 28.704C30.4805 28.1047 30.6136 27.1449 30.0616 26.4525C29.5135 25.76 28.5465 25.7074 27.8613 26.3715C26.0369 28.1371 24.2165 29.9067 22.4116 31.6925C21.6521 32.4417 21.288 33.3893 21.2802 34.4705C21.2685 36.2968 21.2685 38.1191 21.2802 39.9454C21.288 41.2088 22.1337 42.1969 23.3434 42.2738C24.3809 42.3386 25.4301 42.286 26.5146 42.286V42.29ZM41.5012 24.5654C41.556 24.5249 41.6069 24.4885 41.6617 24.448C41.9945 23.306 41.8536 22.245 41.0549 21.3258C40.6908 20.9047 40.589 20.4916 40.8161 19.9611C41.1136 19.2687 40.9492 18.5681 40.452 18.1024C39.9744 17.657 39.2853 17.5719 38.7098 17.8797C38.1304 18.1915 37.8054 18.8192 37.8994 19.5359C37.9699 20.0705 37.7859 20.4268 37.3552 20.7103C37.0224 20.929 36.7327 21.2124 36.3921 21.4959C36.6505 21.751 36.858 21.9251 37.0303 22.1357C37.2887 22.4516 37.5745 22.5771 37.9973 22.5568C39.117 22.4961 40.0644 22.9537 40.8513 23.7676C41.0901 24.0147 41.2898 24.2981 41.5051 24.5654H41.5012ZM40.4168 26.0921C40.0605 25.7155 39.7355 25.3429 39.3793 25.0068C38.8742 24.529 38.2635 24.3629 37.6019 24.5411C37.0968 24.6747 36.6936 24.5735 36.3373 24.1685C36.0085 23.796 35.6522 23.4558 35.2881 23.0792C34.7087 24.4885 35.2489 26.1042 36.5017 26.8817C37.8015 27.6876 39.4419 27.3636 40.4168 26.0921ZM11.1012 17.9242C10.4904 17.5112 9.85229 17.3694 9.16717 17.3532C8.76001 17.3451 8.33327 17.3047 7.94568 17.1791C6.90821 16.839 5.7572 17.0819 5.08773 17.8675C6.6968 18.6896 8.30195 19.5076 9.94234 20.3458C10.3338 19.5278 10.7097 18.7382 11.0973 17.9283L11.1012 17.9242Z" fill="#D76F2C"/>
			<path d="M31.2283 14.0366C31.2361 14.5752 30.8525 15.0004 30.3396 15.0166C29.8072 15.0328 29.3687 14.5995 29.3726 14.0569C29.3726 13.5345 29.7876 13.1052 30.2965 13.1012C30.8094 13.0931 31.2205 13.5061 31.2283 14.0407V14.0366Z" fill="#D76F2C"/>
		</symbol>

		<symbol id="icon-hands" viewBox="0 0 48 48"> 
    	<title>Hands</title>
			<path d="M2.79002 18.932C2.79922 18.4521 2.40367 18.05 1.92072 18.0362C1.44238 18.0225 1.02843 18.4064 1.00543 18.8909C0.982434 19.3844 1.39639 19.8095 1.89773 19.8095C2.38067 19.8095 2.78083 19.4164 2.79002 18.932Z" fill="#D76F2C"/>
			<path d="M46.9954 31.8679C46.7332 32.293 46.3561 32.4575 45.8547 32.5124C42.3913 32.8918 38.9325 33.3077 35.4691 33.7008C34.1997 33.8425 33.1464 33.4128 32.3139 32.4575C31.0123 30.9629 29.7106 29.4636 28.4227 27.9552C27.8524 27.2879 27.1533 26.9496 26.2702 26.9542C24.7156 26.9634 23.161 26.9542 21.6063 26.9542C21.5971 28.2386 22.7102 29.3311 24.0993 29.4362C24.2188 29.4453 24.343 29.4636 24.458 29.4408C25.4469 29.2762 26.192 29.6419 26.7761 30.4326C26.9969 30.7297 27.2913 30.972 27.5489 31.2417C29.3702 33.1295 29.292 36.1691 27.3787 37.9243C25.4055 39.7344 22.3331 39.5927 20.5807 37.6089C19.8447 36.7724 19.4768 35.7897 19.4124 34.6835C19.3158 33.0929 19.5458 31.5799 20.3323 30.1584C20.6864 29.523 20.4243 28.7688 19.8217 28.4169C19.2146 28.0649 18.3775 28.2066 18.0464 28.8328C16.7907 31.2005 16.0594 33.6825 16.7033 36.3793C16.8505 37.0055 17.1679 37.5952 17.4576 38.1803C17.7336 38.7379 17.6692 39.2361 17.2184 39.5149C16.7539 39.7983 16.2204 39.6338 15.9076 39.0716C15.6914 38.6831 15.5396 38.258 15.3189 37.874C15.2223 37.7003 15.0613 37.4992 14.8865 37.4352C11.9245 36.3656 8.95321 35.3143 5.98195 34.263C5.12185 33.9568 4.33994 34.2539 4.01338 34.9852C3.66382 35.7623 4.03178 36.617 4.88268 36.9416C6.34531 37.4992 7.82174 38.0386 9.28897 38.5825C12.619 39.8166 15.9444 41.0782 19.2882 42.2712C20.7922 42.806 22.3331 43.2539 23.9659 43.2128C25.8562 43.1671 27.6224 42.6871 29.2874 41.7958C30.143 41.3387 30.9893 40.8634 31.8585 40.4337C32.1529 40.2874 32.5071 40.1823 32.8336 40.1823C37.1433 40.164 41.453 40.1823 45.7673 40.164C46.3147 40.164 46.7194 40.324 47 40.7902V41.325C46.747 41.8232 46.3423 41.9695 45.7903 41.9649C41.6278 41.9466 37.4653 41.9512 33.3028 41.9649C32.9762 41.9649 32.6267 42.0655 32.3323 42.2072C30.9295 42.87 29.5726 43.6379 28.1422 44.2275C26.7117 44.8217 25.1709 45 23.6163 45C18.1659 44.9954 12.7156 45 7.2652 45C6.04634 45 5.10805 44.5063 4.54232 43.4367C4.02258 42.454 4.04557 41.4301 4.6987 40.5205C5.03906 40.0406 5.5588 39.6886 6.00495 39.2727C5.48981 39.0807 4.89648 38.8613 4.30774 38.6373C2.82212 38.0751 1.91602 36.6719 2.1092 35.2275C2.32077 33.6322 3.52583 32.4712 5.17704 32.3661C5.68298 32.3341 6.22112 32.4621 6.70407 32.6267C9.22917 33.4997 11.7451 34.4093 14.261 35.3052C14.399 35.3555 14.5416 35.3966 14.7347 35.456C14.7347 34.743 14.7071 34.0665 14.7393 33.3946C14.8267 31.7399 15.2959 30.1858 16.0272 28.6957C16.7861 27.1599 17.913 26.2594 19.7482 26.4926C19.7574 26.3372 19.7666 26.2046 19.7712 26.0766C19.8033 25.5098 20.1345 25.167 20.7186 25.167C22.678 25.1624 24.642 25.1396 26.6014 25.1762C27.8616 25.2036 28.9011 25.7612 29.7244 26.712C31.0122 28.2021 32.3047 29.683 33.5833 31.1823C34.0939 31.781 34.6964 31.9959 35.4921 31.8953C38.9095 31.4794 42.3269 31.1046 45.7443 30.7023C46.3193 30.6338 46.7424 30.7892 46.9954 31.324V31.8588V31.8679ZM22.1169 30.6978C21.3626 31.8496 21.1418 33.0655 21.197 34.3636C21.2614 35.8765 22.0617 36.9827 23.3909 37.3209C24.642 37.6409 26.0402 37.0604 26.6842 35.968C27.2407 35.0218 27.3051 33.3717 26.0908 32.3021C25.7873 32.037 25.5389 31.7171 25.2399 31.4474C25.1203 31.3422 24.9364 31.2417 24.78 31.2463C23.8555 31.26 22.9632 31.1411 22.1215 30.7023L22.1169 30.6978ZM16.3124 43.2219C16.3216 43.1945 16.3262 43.1671 16.3353 43.1396C16.2848 43.1168 16.2388 43.0894 16.1882 43.0711C14.3852 42.3992 12.5822 41.7227 10.7746 41.0599C10.6366 41.0096 10.4848 40.9868 10.3376 40.9822C9.30276 40.9776 8.27248 40.9731 7.2376 40.9822C6.49249 40.9868 6.00495 41.4439 6.00495 42.1066C6.00495 42.774 6.48329 43.2128 7.2468 43.2173C8.32308 43.2265 9.40395 43.2173 10.4802 43.2173C12.4258 43.2173 14.3714 43.2173 16.3124 43.2173V43.2219Z" fill="#D76F2C"/>
			<path d="M26.4036 4.82203C24.6604 4.82203 22.9586 4.7946 21.2522 4.83574C20.5853 4.85402 20.0518 5.24254 19.6148 5.74991C18.4006 7.16688 17.1449 8.54728 15.9674 9.99167C14.9096 11.2944 13.6033 11.7149 11.9567 11.5001C8.66348 11.0704 5.36106 10.723 2.06325 10.3482C1.41932 10.2751 1.05596 10.0008 1.00537 9.5163C0.945576 8.94951 1.39172 8.497 2.01725 8.55642C3.24071 8.67069 4.45497 8.81696 5.67383 8.95866C8.05175 9.23291 10.4297 9.5163 12.8076 9.77684C13.4331 9.8454 13.9391 9.58029 14.3438 9.10492C15.5581 7.69253 16.8091 6.30756 17.9912 4.86773C19.0629 3.57418 20.3783 2.95254 22.0617 3.00282C23.6025 3.04853 25.1434 3.01196 26.6888 3.01196C28.0134 3.01196 28.0732 3.06224 28.2756 4.32837C30.051 4.12268 31.1825 4.98201 31.946 6.5041C32.9211 8.45129 33.3856 10.4945 33.2798 12.6656C33.2706 12.8576 33.2614 13.0496 33.2522 13.3101C33.4362 13.2507 33.5834 13.2096 33.726 13.1593C36.3155 12.2405 38.9004 11.3081 41.4945 10.3985C43.2331 9.79055 45.0637 10.6225 45.6984 12.2771C46.3239 13.918 45.5328 15.7372 43.8862 16.4092C43.2377 16.6743 42.5753 16.9028 41.8624 17.1725C42.0464 17.2731 42.189 17.3416 42.327 17.4193C43.463 18.0592 44.038 19.3848 43.7206 20.6235C43.3941 21.9125 42.2856 22.8404 40.9655 22.8404C35.2024 22.8495 29.4393 22.8678 23.6761 22.8221C21.6294 22.8038 19.7022 22.1913 17.8946 21.2269C17.1173 20.8109 16.3446 20.3858 15.5627 19.9881C15.3603 19.8876 15.1119 19.819 14.8866 19.819C11.9843 19.8099 9.07743 19.8099 6.17517 19.8099C6.02339 19.8099 5.8716 19.819 5.72902 19.7962C5.29207 19.7276 4.97471 19.3528 4.97011 18.9277C4.96551 18.4843 5.29667 18.1004 5.75662 18.0364C5.89 18.0181 6.02339 18.0272 6.16137 18.0272C9.16942 18.0272 12.1821 18.0181 15.1901 18.0364C15.5167 18.0364 15.8662 18.1369 16.1652 18.2832C17.5313 18.9506 18.8467 19.7459 20.2541 20.3127C23.1012 21.4645 25.9575 21.204 28.7861 20.139C33.5374 18.3518 38.2978 16.592 43.0583 14.8139C43.8586 14.5168 44.2634 13.8358 44.0978 13.1136C43.8908 12.2223 43.0261 11.756 42.1108 12.0714C40.8138 12.5194 39.5213 12.9947 38.2289 13.4518C36.5408 14.0506 34.8482 14.6448 33.1694 15.2619C32.9809 15.3304 32.8015 15.5316 32.7003 15.7144C32.4519 16.1532 32.2771 16.6331 32.015 17.0628C31.7482 17.5062 31.2147 17.5976 30.7961 17.3416C30.4006 17.0994 30.235 16.5874 30.4925 16.1715C31.9138 13.8723 31.7528 11.4681 30.9893 9.02722C30.7685 8.32331 30.4558 7.63768 30.143 6.96576C29.7566 6.143 28.9885 5.85047 28.2664 6.21157C27.5489 6.57267 27.3373 7.36342 27.7605 8.15875C28.6712 9.88197 28.8689 11.7103 28.4136 13.5707C27.8249 15.9978 25.3182 17.4696 22.8712 16.9165C20.4013 16.3589 18.7961 14.0003 19.2101 11.564C19.3756 10.5767 19.7896 9.73113 20.5071 9.02722C20.9119 8.62955 21.3166 8.22732 21.6846 7.80223C22.0249 7.40913 22.4159 7.23087 22.9402 7.25829C23.3726 7.28115 23.8095 7.26744 24.2373 7.20802C25.4239 7.04346 26.3438 6.02416 26.422 4.79917L26.4036 4.82203ZM25.9253 8.61584C25.3319 8.76211 24.7754 9.03636 24.2419 9.00436C23.1748 8.9358 22.4665 9.4066 21.8732 10.1882C21.8364 10.2339 21.7904 10.2751 21.749 10.3162C20.8843 11.2121 20.6773 12.5514 21.2338 13.6621C21.7536 14.6951 23.0138 15.3761 24.1729 15.2527C25.4193 15.1202 26.4634 14.2334 26.698 12.9947C26.9878 11.4406 26.7946 9.94596 25.9299 8.61584H25.9253ZM31.6516 20.9755C31.6516 21.0029 31.6516 21.0257 31.6516 21.0532C31.7068 21.0577 31.762 21.0714 31.8126 21.0714C34.8022 21.0714 37.7965 21.0714 40.7862 21.0714C41.4991 21.0714 41.982 20.6098 41.9866 19.9653C41.9866 19.3162 41.5083 18.8454 40.8046 18.8409C39.7743 18.8317 38.7394 18.8363 37.7091 18.8409C37.5619 18.8409 37.4055 18.8454 37.2722 18.8957C35.3956 19.5859 33.5236 20.2853 31.6516 20.9846V20.9755Z" fill="#D76F2C"/>
		</symbol>

		<symbol id="icon-call" viewBox="0 0 48 48"> 
    	<title>Phone</title>
				<path d="M28.0993 12C30.0528 12.3811 31.8481 13.3365 33.2555 14.7439C34.6628 16.1512 35.6182 17.9465 35.9993 19.9M28.0993 4C32.1579 4.45087 35.9425 6.26835 38.8318 9.15402C41.7211 12.0397 43.5433 15.822 43.9993 19.88M20.4533 27.7261C18.0501 25.323 16.1525 22.6057 14.7606 19.7065C14.6408 19.4571 14.581 19.3324 14.535 19.1746C14.3715 18.6139 14.4889 17.9254 14.8289 17.4505C14.9246 17.3169 15.0389 17.2026 15.2676 16.974C15.9668 16.2747 16.3164 15.9251 16.5449 15.5736C17.4069 14.2478 17.4069 12.5386 16.5449 11.2129C16.3164 10.8613 15.9668 10.5117 15.2676 9.81249L14.8778 9.42275C13.8149 8.35986 13.2835 7.82842 12.7127 7.53973C11.5776 6.96559 10.2371 6.96559 9.10195 7.53973C8.53119 7.82842 7.99975 8.35987 6.93686 9.42275L6.62159 9.73802C5.56235 10.7973 5.03273 11.3269 4.62823 12.047C4.17939 12.846 3.85666 14.0869 3.85939 15.0034C3.86185 15.8293 4.02206 16.3937 4.34247 17.5226C6.06441 23.5894 9.31336 29.3141 14.0893 34.0901C18.8653 38.8661 24.59 42.115 30.6568 43.8369C31.7857 44.1574 32.3501 44.3176 33.176 44.32C34.0925 44.3228 35.3335 44 36.1325 43.5512C36.8525 43.1467 37.3822 42.6171 38.4414 41.5578L38.7567 41.2426C39.8196 40.1797 40.351 39.6482 40.6397 39.0775C41.2138 37.9423 41.2138 36.6018 40.6397 35.4667C40.351 34.8959 39.8196 34.3645 38.7567 33.3016L38.3669 32.9119C37.6677 32.2127 37.3181 31.863 36.9666 31.6345C35.6408 30.7725 33.9316 30.7725 32.6058 31.6345C32.2543 31.863 31.9047 32.2127 31.2055 32.9119C30.9768 33.1405 30.8625 33.2548 30.7289 33.3505C30.254 33.6905 29.5655 33.8079 29.0048 33.6445C28.847 33.5985 28.7223 33.5386 28.473 33.4189C25.5737 32.0269 22.8564 30.1293 20.4533 27.7261Z"
				style="stroke:var(--icon-stroke); stroke-width: var(--icon-stroke-w); stroke-linecap: round; stroke-linejoin: round;"/>
		</symbol>

		<symbol id="icon-menu" viewBox="0 0 48 48"> 
    	<title>Menu</title>
				<path d="M6.875 31.625H37.125M6.875 22H22M6.875 12.375H37.125"
				style="stroke:var(--icon-stroke); stroke-width: var(--icon-stroke-w); stroke-linecap: round; stroke-linejoin: round;"/>
		</symbol>

		<symbol id="icon-close" viewBox="0 0 44 44" fill="none"> 
    	<title>Close</title>
				<path d="M11 33L33 11M11 11L33 33"
				style="stroke:var(--icon-stroke); stroke-width: var(--icon-stroke-w); stroke-linecap: round; stroke-linejoin: round;"/>
		</symbol>

		<symbol id="icon-arr-left" viewBox="0 0 44 44" fill="none"> 
    	<title>Arrow left</title>
				<path d="M26 11L15 22L26 33"
				style="stroke:var(--icon-stroke); stroke-width: var(--icon-stroke-w); stroke-linecap: round; stroke-linejoin: round;"/>
		</symbol>

		<symbol id="icon-arr-right" viewBox="0 0 44 44" fill="none"> 
    	<title>Arrow right</title>
				<path d="M18 33L29 22L18 11"
				style="stroke:var(--icon-stroke); stroke-width: var(--icon-stroke-w); stroke-linecap: round; stroke-linejoin: round;"/>
		</symbol>

		<symbol id="icon-arrow" viewBox="0 0 40 40"> 
    	<title>Arrow</title>
				<path d="M13 20.5L19 26.5M19 26.5L25 20.5M19 26.5L19 11.5M37 19C37 28.9411 28.9411 37 19 37C9.05887 37 1 28.9411 1 19C1 9.05887 9.05887 1 19 1C28.9411 1 37 9.05887 37 19Z" stroke="#D76F2C" stroke-linecap="round" stroke-linejoin="round"
				style="stroke:var(--icon-stroke); stroke-width: var(--icon-stroke-w); stroke-linecap: round; stroke-linejoin: round;"/>
		</symbol>

		<symbol id="icon-mate" viewBox="0 0 48 48"> 
    	<title>Mate</title>
				<path d="M12.1514 61.934C10.0207 61.73 7.93874 61.034 6.0759 59.996C4.91923 59.348 3.92694 58.298 3.2025 57.212C2.44762 56.078 2.02148 54.8299 2.02148 53.4619C2.02148 46.8619 2.02148 40.2558 2.02148 33.6558C2.02148 32.8458 2.50241 32.3358 3.21467 32.3418C3.93302 32.3478 4.40178 32.8878 4.40178 33.7398C4.40178 38.2338 4.40178 42.7278 4.40178 47.2159C4.40178 47.4259 4.40178 47.6359 4.40178 47.8039C10.4347 43.5558 16.4128 43.5498 22.4458 47.8039C22.4518 47.7139 22.4762 47.5519 22.4762 47.3899C22.4762 35.2218 22.4762 23.0537 22.4762 10.8856C22.4762 9.16356 21.7396 7.79555 20.449 6.69154C16.7416 3.51752 9.98421 3.55952 6.31941 6.78754C5.04707 7.90955 4.35916 9.27156 4.37743 11.0056C4.42613 14.8336 4.3896 18.6616 4.3896 22.4897C4.3896 22.6877 4.40178 22.8797 4.37743 23.0777C4.2922 23.7437 3.76257 24.1817 3.11727 24.1457C2.49024 24.1097 2.05192 23.6477 2.01539 22.9817C2.00322 22.8077 2.01539 22.6277 2.01539 22.4537C2.01539 18.6436 2.05801 14.8336 2.00322 11.0296C1.96669 8.41956 3.04422 6.37354 5.04099 4.77153C7.86569 2.50351 11.1774 1.7475 14.7326 2.0715C15.9989 2.18551 17.2834 2.47351 18.4827 2.89951C21.8979 4.10552 23.5781 5.94754 24.8321 9.59557C25.0696 9.59557 25.3252 9.59557 25.5809 9.59557C35.8083 9.59557 46.0356 9.59557 56.263 9.59557C59.1851 9.59557 61.4132 11.3836 61.9185 14.1196C62.0037 14.5756 61.9976 15.0556 61.9976 15.5176C61.9976 29.0177 61.9976 42.5118 61.9976 56.012C61.9976 59.258 60.5 61.142 57.3101 61.934C57.2736 61.94 57.2492 61.976 57.2127 62H13.4603C13.022 62 12.5898 61.976 12.1514 61.934ZM21.3013 59.648C21.6422 59.648 21.8309 59.648 22.0196 59.648C33.4158 59.648 44.812 59.648 56.2082 59.648C58.3146 59.648 59.6234 58.37 59.6234 56.294C59.6234 42.6258 59.6234 28.9517 59.6234 15.2836C59.6234 13.2016 58.3328 11.9416 56.2082 11.9416C45.9809 11.9416 35.7535 11.9416 25.5322 11.9416H24.8687C24.8687 12.2716 24.8687 12.5236 24.8687 12.7756C24.8687 26.1737 24.8626 39.5718 24.8748 52.9639C24.8748 55.436 23.8946 57.422 22.0501 59.036C21.8492 59.21 21.6361 59.378 21.3134 59.648H21.3013ZM13.369 59.654C15.6275 59.612 17.7278 59.15 19.6028 57.926C19.962 57.692 20.3151 57.422 20.6316 57.134C23.0789 54.9079 23.0911 51.7639 20.6377 49.5379C18.8723 47.9359 16.7172 47.2279 14.3674 47.0659C11.5061 46.8679 8.84581 47.4499 6.56292 49.2439C3.67734 51.5119 3.67734 55.1419 6.55074 57.422C8.5536 59.012 10.8913 59.594 13.369 59.66V59.654Z" fill="#D76F2C"/>
				<path d="M2.02795 28.2139C2.04622 27.5839 2.56976 27.0739 3.20897 27.0799C3.86036 27.0799 4.41434 27.6499 4.39607 28.2859C4.37172 28.9039 3.82992 29.4199 3.20288 29.4199C2.53932 29.4199 2.01578 28.8859 2.03404 28.2199L2.02795 28.2139Z" fill="#D76F2C"/>
				<path d="M13.4183 49.61C14.6115 49.64 15.7316 49.916 16.6935 50.654C18.5685 52.094 18.5685 54.584 16.6935 56.0181C14.922 57.3801 12.0486 57.3981 10.2466 56.0661C8.25591 54.59 8.28026 52.004 10.2953 50.558C11.2267 49.892 12.286 49.634 13.4183 49.604V49.61ZM13.0591 51.98C12.8034 52.016 12.5538 52.082 12.3164 52.178C11.9512 52.328 11.5737 52.52 11.318 52.826C11.0319 53.162 11.178 53.66 11.4459 53.972C11.6833 54.248 12.0242 54.422 12.3712 54.536C13.0835 54.764 13.8688 54.746 14.575 54.5C15.0985 54.314 15.7742 53.858 15.7073 53.228C15.6768 52.946 15.4942 52.79 15.275 52.616C14.8063 52.238 14.2158 52.004 13.6131 51.968C13.4305 51.956 13.2417 51.968 13.0591 51.986V51.98Z" fill="#D76F2C"/>
		</symbol>

		<symbol id="icon-yoga" viewBox="0 0 48 48"> 
    	<title>Training</title>
			<path d="M63.9843 58.1145C63.5772 58.8164 62.9664 59 62.1991 59C42.0551 58.9838 21.9163 58.9892 1.77227 58.9838C1.46429 58.9838 1.14065 58.973 0.848326 58.892C0.305445 58.7354 -0.0338556 58.1793 0.00268451 57.607C0.0392246 57.0022 0.472485 56.5109 1.06235 56.4299C1.32857 56.3921 1.60523 56.4029 1.87145 56.4029C9.8685 56.4029 17.8708 56.4029 25.8678 56.4029C26.1132 56.4029 26.3637 56.4029 26.6926 56.4029C26.5986 56.1708 26.4995 56.0088 26.4629 55.8306C26.2593 54.9613 25.9305 54.092 25.9044 53.2119C25.8261 50.8254 25.8678 48.4281 25.8783 46.0362C25.8835 43.7685 26.6822 41.8409 28.269 40.2697C29.3652 39.1845 30.4719 38.1154 31.5837 37.0301C27.8723 35.6047 24.234 34.1145 20.5278 32.8079C14.9946 30.8641 9.738 28.2994 4.55453 25.5512C3.58361 25.0382 3.39047 24.3849 3.92291 23.3914C5.34797 20.735 8.45388 19.4823 11.2831 20.411C11.5911 20.5136 11.9304 20.5514 12.254 20.5514C13.8931 20.5622 15.36 21.0751 16.6858 22.0632C16.9834 22.2846 17.3122 22.4843 17.6515 22.6247C19.1653 23.2295 20.6844 23.818 22.2034 24.3957C22.5061 24.5091 22.835 24.5577 23.2422 24.5037C23.1169 24.3579 22.9968 24.2067 22.8611 24.0663C21.6553 22.8137 20.4286 21.5881 19.2436 20.3138C16.8581 17.7545 16.0803 14.7147 17.0878 11.3239C18.0848 7.96015 20.3712 5.88141 23.712 5.1903C26.5256 4.61257 29.0729 5.35228 31.1609 7.38242C33.2385 9.40177 35.2169 11.5345 37.2318 13.624C37.8008 14.218 37.8217 15.0063 37.3258 15.5246C36.8142 16.0591 36.0782 16.0483 35.4883 15.4598C34.9767 14.9523 34.5017 14.4123 34.058 13.9372C32.8209 15.2168 31.6255 16.4533 30.3727 17.7545C31.2392 18.8344 32.184 20.0007 33.1236 21.1723C34.4861 22.8569 35.8381 24.5523 37.2161 26.2207C38.3123 27.5543 38.9283 29.0553 38.8865 30.8209C38.8865 31.0045 38.9701 31.2583 39.1006 31.3716C40.5674 32.6351 42.2743 33.1858 44.1901 33.1372C44.237 32.4299 44.1744 31.7388 44.3571 31.1233C44.639 30.1676 45.0409 29.2443 45.4794 28.3534C45.6517 28.0079 45.7456 27.7433 45.5629 27.4193C44.8582 26.1829 44.164 24.941 43.4279 23.7262C43.0782 23.1485 43.0103 22.5923 43.3653 22.1118C43.7203 21.6259 44.2109 21.4585 44.7486 21.6582C45.0253 21.7608 45.3071 21.9822 45.4742 22.2306C46.1424 23.2402 46.7687 24.2769 47.4056 25.3136C47.5152 25.4918 47.5935 25.6915 47.8441 25.9021C47.9015 25.6861 47.9902 25.481 48.0216 25.2596C48.507 21.5827 52.3698 19.7469 55.2095 21.8742C56.7494 23.0297 57.3184 24.6333 57.0574 26.577C57.0208 26.8632 57.0731 27.225 57.2192 27.4625C58.8792 30.1946 58.5869 33.5152 56.4362 35.8531C55.4444 36.9329 54.4526 38.002 53.0536 38.5473C50.2609 39.6326 47.1289 38.6607 45.4115 36.1122C45.1819 35.7721 44.9783 35.6209 44.5555 35.6803C44.07 35.7505 43.5637 35.6965 43.0991 35.6965C43.0521 35.7829 43.0103 35.8207 43.0156 35.8531C43.2087 37.9534 42.3317 39.4652 40.7135 40.6855C38.422 42.4079 36.2087 44.2328 33.9432 45.993C33.6248 46.2414 33.4943 46.4844 33.5047 46.9001C33.5308 48.3201 33.5151 49.7401 33.5151 50.9388C34.533 51.6839 35.5457 52.2184 36.2713 53.0229C36.9551 53.7842 37.4093 54.8047 37.8269 55.7712C38.0252 56.2247 38.1766 56.3813 38.6464 56.3813C46.5391 56.3651 54.4369 56.3813 62.3296 56.3597C63.0969 56.3597 63.6711 56.5649 64 57.31V58.0875L63.9843 58.1145ZM32.0849 12.123C31.1087 11.0702 30.2422 9.9795 29.2139 9.07781C27.5435 7.6092 25.5703 7.23124 23.4718 7.90616C19.0662 9.32618 17.7194 14.9793 20.9715 18.451C23.0438 20.6648 25.1684 22.8245 27.2877 24.9842C27.6009 25.3028 28.0133 25.535 28.41 25.7509C29.3078 26.2423 30.2422 26.6688 31.1244 27.1872C31.7873 27.5813 31.9387 28.3588 31.5681 28.9743C31.2183 29.5575 30.5084 29.7356 29.8664 29.3955C29.6471 29.2767 29.4331 29.1363 29.2191 29.0067C27.4704 27.9917 25.6016 27.3437 23.6023 27.225C22.5479 27.1656 21.5561 26.955 20.58 26.5446C19.4107 26.0533 18.2205 25.616 16.999 25.1354C16.5136 26.1505 16.0542 27.1224 15.574 28.132C17.2339 28.7692 18.8104 29.3685 20.3868 29.9732C24.0304 31.3716 27.6687 32.7809 31.3175 34.1631C33.0036 34.8056 34.7366 34.2603 35.7128 32.8349C36.6941 31.404 36.6002 29.5521 35.4726 28.1104C35.1333 27.6731 34.7784 27.252 34.4339 26.82C31.9752 23.7802 29.5166 20.7458 27.0632 17.7005C26.5569 17.0742 26.4942 16.5343 26.8283 15.9944C27.1572 15.4652 27.627 15.3302 28.3682 15.503C28.5196 15.5354 28.7493 15.5084 28.8537 15.4112C29.9603 14.3044 31.0461 13.1759 32.0901 12.1122L32.0849 12.123ZM35.3526 56.3867C34.9924 55.1341 34.1885 54.281 32.9409 53.768C31.5159 53.1795 31.0095 52.4074 31.0043 50.82C31.0043 49.2704 31.0304 47.7208 30.9939 46.1658C30.9782 45.3991 31.2497 44.8754 31.8395 44.4164C34.4495 42.3863 37.0439 40.3291 39.6382 38.272C40.6405 37.4729 40.8179 36.1932 40.0819 35.27C39.3511 34.3467 38.0618 34.2765 37.1483 35.162C34.7157 37.5161 32.2884 39.8756 29.882 42.2567C28.8693 43.2556 28.3839 44.519 28.3734 45.9606C28.3578 48.3957 28.3578 50.8254 28.3734 53.2605C28.3839 54.9451 29.5114 56.2625 31.1244 56.3651C32.5077 56.4515 33.9066 56.3813 35.3526 56.3813V56.3867ZM55.3348 32.7539C55.4079 32.6999 55.4757 32.6513 55.5488 32.5973C55.9925 31.0747 55.8046 29.66 54.7397 28.4344C54.2542 27.8729 54.1185 27.3221 54.4213 26.6148C54.818 25.6915 54.5988 24.7575 53.9358 24.1365C53.299 23.5426 52.3803 23.4292 51.6129 23.8396C50.8404 24.2553 50.4071 25.0922 50.5324 26.0479C50.6263 26.7606 50.381 27.2358 49.8068 27.6137C49.3631 27.9053 48.9768 28.2832 48.5227 28.6612C48.8672 29.0013 49.1439 29.2335 49.3735 29.5143C49.7181 29.9354 50.0991 30.1028 50.6629 30.0758C52.1558 29.9948 53.419 30.6049 54.4683 31.6902C54.7867 32.0196 55.0529 32.3975 55.34 32.7539H55.3348ZM53.8888 34.7894C53.4138 34.2873 52.9806 33.7905 52.5055 33.3424C51.8322 32.7053 51.0178 32.4839 50.1357 32.7215C49.4623 32.8996 48.9246 32.7647 48.4496 32.2247C48.0111 31.728 47.5361 31.2744 47.0506 30.7723C46.2781 32.6513 46.9984 34.8056 48.6688 35.8423C50.4019 36.9167 52.5891 36.4848 53.8888 34.7894ZM14.8014 23.899C13.9871 23.3482 13.1362 23.1593 12.2227 23.1377C11.6798 23.1269 11.1109 23.0729 10.5941 22.9055C9.21078 22.4519 7.6761 22.7759 6.78348 23.8234C8.9289 24.9194 11.0691 26.0101 13.2563 27.1278C13.7783 26.0371 14.2794 24.9842 14.7962 23.9044L14.8014 23.899Z" fill="#D76F2C"/>
			<path d="M41.6375 18.7154C41.648 19.4335 41.1364 20.0005 40.4526 20.0221C39.7427 20.0437 39.158 19.4659 39.1632 18.7424C39.1632 18.0459 39.7166 17.4736 40.3952 17.4682C41.079 17.4574 41.6271 18.0081 41.6375 18.7208V18.7154Z" fill="#D76F2C"/>
		</symbol>

		<symbol id="icon-hands" viewBox="0 0 48 48"> 
    	<title>Hands</title>
				<path d="M2.49053 24.3809C2.50333 23.7068 1.95299 23.1418 1.28107 23.1226C0.615549 23.1033 0.0396159 23.6426 0.00761967 24.3231C-0.0243766 25.0165 0.551556 25.6135 1.24907 25.6135C1.921 25.6135 2.47773 25.0614 2.49053 24.3809Z" fill="#D76F2C"/>
				<path d="M63.9936 42.5525C63.6288 43.1496 63.1041 43.3808 62.4065 43.4578C57.5879 43.9908 52.7757 44.5751 47.957 45.1273C46.1908 45.3263 44.7254 44.7228 43.5671 43.3808C41.7562 41.2811 39.9452 39.1751 38.1534 37.0561C37.3599 36.1187 36.3872 35.6435 35.1585 35.6499C32.9956 35.6628 30.8326 35.6499 28.6697 35.6499C28.6569 37.4542 30.2055 38.9888 32.1381 39.1365C32.3045 39.1494 32.4772 39.1751 32.6372 39.1429C34.0131 38.9118 35.0497 39.4255 35.8624 40.5363C36.1696 40.9537 36.5792 41.294 36.9375 41.6728C39.4716 44.3247 39.3628 48.5946 36.7007 51.0603C33.9555 53.603 29.6808 53.4039 27.2427 50.6172C26.2188 49.4422 25.7068 48.0617 25.6172 46.5078C25.4829 44.2733 25.8028 42.148 26.8971 40.151C27.3898 39.2585 27.0251 38.1991 26.1868 37.7046C25.3421 37.2102 24.1774 37.4093 23.7167 38.289C21.9697 41.615 20.9522 45.1016 21.8481 48.89C22.0529 49.7697 22.4944 50.598 22.8976 51.4198C23.2815 52.2032 23.1919 52.9031 22.5648 53.2948C21.9185 53.6929 21.1762 53.4617 20.741 52.6719C20.4402 52.1262 20.2291 51.529 19.9219 50.9896C19.7875 50.7456 19.5635 50.4631 19.3204 50.3732C15.1993 48.8707 11.0653 47.3939 6.93142 45.9171C5.73476 45.4869 4.64689 45.9042 4.19254 46.9316C3.7062 48.0232 4.21814 49.2239 5.402 49.6798C7.43697 50.4631 9.49113 51.2208 11.5325 51.9849C16.1655 53.7186 20.7922 55.4907 25.4445 57.1666C27.537 57.9179 29.6808 58.5471 31.9525 58.4893C34.5826 58.4251 37.0399 57.7509 39.3564 56.4988C40.5467 55.8567 41.7242 55.189 42.9336 54.5854C43.3432 54.3799 43.8359 54.2322 44.2903 54.2322C50.2864 54.2065 56.2825 54.2322 62.285 54.2066C63.0465 54.2066 63.6096 54.4313 64 55.0862V55.8375C63.648 56.5374 63.0849 56.7428 62.317 56.7364C56.5256 56.7107 50.7343 56.7172 44.943 56.7364C44.4886 56.7364 44.0023 56.8777 43.5927 57.0767C41.641 58.0078 39.7532 59.0865 37.763 59.9148C35.7729 60.7495 33.6291 60.9999 31.4662 60.9999C23.883 60.9935 16.2999 60.9999 8.71682 60.9999C7.02101 60.9999 5.71557 60.3065 4.92846 58.804C4.20534 57.4235 4.23734 55.9852 5.14603 54.7074C5.61958 54.0332 6.34269 53.5388 6.96342 52.9545C6.2467 52.6848 5.4212 52.3766 4.6021 52.0619C2.53514 51.2722 1.27449 49.3009 1.54325 47.2719C1.83762 45.031 3.51422 43.4001 5.81156 43.2524C6.51547 43.2074 7.26419 43.3872 7.93611 43.6184C11.4493 44.8448 14.9497 46.1225 18.4501 47.3811C18.6421 47.4517 18.8404 47.5095 19.1092 47.5929C19.1092 46.5913 19.0708 45.641 19.1156 44.6971C19.2372 42.3727 19.8899 40.1896 20.9074 38.0963C21.9633 35.9389 23.5311 34.6739 26.0844 35.0014C26.0972 34.7831 26.11 34.5969 26.1164 34.4171C26.1612 33.6209 26.6219 33.1393 27.4346 33.1393C30.1607 33.1329 32.8932 33.1008 35.6193 33.1522C37.3727 33.1907 38.8189 33.9741 39.9644 35.3096C41.7562 37.4029 43.5543 39.4833 45.3333 41.5893C46.0437 42.4305 46.882 42.7323 47.989 42.591C52.7437 42.0067 57.4983 41.4802 62.253 40.9151C63.0529 40.8188 63.6416 41.0371 63.9936 41.7884V42.5396V42.5525ZM29.38 40.9087C28.3305 42.5268 28.0234 44.2348 28.1002 46.0583C28.1897 48.1837 29.3032 49.7376 31.1526 50.2127C32.8932 50.6622 34.8386 49.8467 35.7345 48.3121C36.5088 46.983 36.5984 44.665 34.909 43.1625C34.4866 42.7901 34.141 42.3406 33.7251 41.9618C33.5587 41.8141 33.3027 41.6728 33.0852 41.6792C31.7989 41.6985 30.5575 41.5315 29.3864 40.9151L29.38 40.9087ZM21.3041 58.5022C21.3169 58.4637 21.3233 58.4251 21.3361 58.3866C21.2658 58.3545 21.2018 58.316 21.1314 58.2903C18.6229 57.3464 16.1144 56.3961 13.5994 55.4651C13.4075 55.3944 13.1963 55.3623 12.9915 55.3559C11.5517 55.3495 10.1183 55.3431 8.67842 55.3559C7.64174 55.3623 6.96342 56.0044 6.96342 56.9355C6.96342 57.8729 7.62894 58.4893 8.69122 58.4958C10.1886 58.5086 11.6925 58.4958 13.1899 58.4958C15.8968 58.4958 18.6037 58.4958 21.3041 58.4958V58.5022Z" fill="#D76F2C"/>
				<path d="M35.3441 4.55951C32.9188 4.55951 30.5511 4.52099 28.177 4.57877C27.2491 4.60446 26.5068 5.15024 25.8988 5.86297C24.2094 7.85347 22.4624 9.79261 20.8242 11.8216C19.3524 13.6516 17.535 14.2423 15.2441 13.9406C10.6622 13.337 6.06756 12.849 1.4793 12.3225C0.583403 12.2197 0.077862 11.8345 0.00747022 11.1539C-0.0757201 10.3577 0.545007 9.72197 1.41531 9.80545C3.11751 9.96597 4.80691 10.1714 6.50271 10.3705C9.81112 10.7558 13.1195 11.1539 16.428 11.5198C17.2983 11.6162 18.0022 11.2437 18.5653 10.576C20.2547 8.59188 21.9953 6.64633 23.6399 4.62372C25.1309 2.80659 26.9611 1.93333 29.3032 2.00396C31.447 2.06817 33.5907 2.01681 35.7409 2.01681C37.5839 2.01681 37.6671 2.08744 37.9486 3.86605C40.4188 3.5771 41.993 4.78425 43.0552 6.92243C44.4119 9.65777 45.0582 12.5279 44.911 15.5779C44.8982 15.8476 44.8854 16.1173 44.8726 16.4833C45.1286 16.3998 45.3334 16.342 45.5317 16.2714C49.1345 14.9808 52.7309 13.6709 56.3401 12.3931C58.759 11.5391 61.3059 12.7077 62.189 15.0321C63.0593 17.3373 61.9586 19.8928 59.6677 20.8367C58.7654 21.2091 57.8439 21.5301 56.852 21.909C57.108 22.0502 57.3064 22.1466 57.4984 22.2557C59.079 23.1547 59.8789 25.0167 59.4373 26.7568C58.983 28.5675 57.4408 29.871 55.6042 29.871C47.5859 29.8838 39.5676 29.9095 31.5494 29.8453C28.7017 29.8196 26.0204 28.9592 23.5055 27.6044C22.4241 27.0201 21.349 26.4229 20.2611 25.8643C19.9795 25.723 19.634 25.6267 19.3204 25.6267C15.2825 25.6139 11.2382 25.6139 7.20023 25.6139C6.98905 25.6139 6.77788 25.6267 6.5795 25.5946C5.97157 25.4983 5.53003 24.9718 5.52363 24.3746C5.51723 23.7518 5.97797 23.2124 6.6179 23.1225C6.80348 23.0969 6.98905 23.1097 7.18103 23.1097C11.3661 23.1097 15.5577 23.0969 19.7428 23.1225C20.1971 23.1225 20.6835 23.2638 21.0994 23.4693C23 24.4067 24.8302 25.524 26.7883 26.3202C30.7495 27.9383 34.7234 27.5723 38.659 26.0762C45.2694 23.5656 51.8926 21.0935 58.5158 18.5958C59.6293 18.1784 60.1924 17.2217 59.9621 16.2072C59.6741 14.9551 58.471 14.3001 57.1976 14.7432C55.393 15.3724 53.5948 16.0402 51.7966 16.6823C49.4481 17.5235 47.0932 18.3582 44.7574 19.225C44.4951 19.3213 44.2455 19.6039 44.1047 19.8607C43.7592 20.4771 43.516 21.1513 43.1512 21.7549C42.7801 22.3777 42.0378 22.5061 41.4554 22.1466C40.9051 21.8062 40.6747 21.0871 41.0331 20.5028C43.0104 17.273 42.7865 13.8956 41.7242 10.4668C41.417 9.47798 40.9819 8.51483 40.5467 7.57095C40.0092 6.41517 38.9405 6.00423 37.9358 6.51149C36.9376 7.01874 36.6432 8.12957 37.2319 9.24682C38.499 11.6675 38.7741 14.2359 38.1406 16.8493C37.3215 20.2588 33.8339 22.3263 30.4295 21.5494C26.9931 20.7661 24.7598 17.4528 25.3357 14.0304C25.5661 12.6435 26.142 11.4556 27.1403 10.4668C27.7034 9.90818 28.2666 9.34314 28.7785 8.74599C29.2521 8.19378 29.796 7.94337 30.5255 7.98189C31.127 8.014 31.735 7.99473 32.3301 7.91126C33.9811 7.6801 35.261 6.24823 35.3697 4.52741L35.3441 4.55951ZM34.6786 9.88892C33.8531 10.0944 33.0788 10.4796 32.3365 10.4347C30.8519 10.3384 29.8664 10.9997 29.0409 12.0977C28.9897 12.1619 28.9257 12.2197 28.8681 12.2775C27.665 13.536 27.3771 15.4174 28.1514 16.9777C28.8745 18.4288 30.6279 19.3855 32.2405 19.2122C33.9747 19.026 35.4273 17.7803 35.7537 16.0402C36.1568 13.8571 35.8881 11.7574 34.685 9.88892H34.6786ZM42.6457 27.2512C42.6457 27.2898 42.6457 27.3219 42.6457 27.3604C42.7225 27.3668 42.7993 27.3861 42.8697 27.3861C47.0292 27.3861 51.1951 27.3861 55.3546 27.3861C56.3465 27.3861 57.0184 26.7376 57.0248 25.8322C57.0248 24.9204 56.3593 24.2591 55.3802 24.2526C53.9468 24.2398 52.5069 24.2462 51.0735 24.2526C50.8687 24.2526 50.6512 24.2591 50.4656 24.3297C47.8547 25.2993 45.2502 26.2817 42.6457 27.2641V27.2512Z" fill="#D76F2C"/>
		</symbol>

		<symbol id="bg-bubble" viewBox="0 0 691 560"> 
    	<title>Bubble</title>
        <path d="M567.015 27.1006C383.342 -75.2262 303.875 142.621 205.803 237.376C117.862 322.41 22.1577 297.585 3.71894 357.137C-13.9206 414.15 56.6948 506.661 141.724 534.083C232.348 563.303 343.381 568.44 444.138 542.986C582.632 507.986 682.708 400.826 690.721 260.147C694.888 186.983 652.387 74.6685 567.044 27.1006H567.015Z" fill="#D76F2C"/>
		</symbol>

		<symbol id="bg-plant" viewBox="0 0 427 451"> 
    	<title>Plant</title>
			<g opacity="0.5">
				<path d="M126.392 61.863C126.392 61.863 138.603 67.4987 149.375 82.3871C160.136 97.2756 164.693 102.492 175.414 133.208C186.136 163.924 207.979 159.927 209.578 180.222C211.187 200.516 238.436 224.927 238.436 224.927C238.436 224.927 258.86 195.09 247.009 159.108C235.158 123.126 206.221 127.602 203.213 111.235C200.205 94.8675 174.365 96.2864 172.107 85.7645C169.849 75.2427 147.996 59.9845 126.392 61.873V61.863Z" stroke="#8C3E02" stroke-width="2.5" stroke-miterlimit="10"/>
				<path d="M392.776 259.46C410.742 277.077 399.811 284.691 403.688 295.203C407.565 305.715 400.93 308.762 400.151 331.635C399.371 354.507 389.099 363.17 389.099 363.17C389.099 363.17 403.568 353.178 410.922 334.582C418.277 315.987 430.307 298.41 423.962 278.296C417.617 258.181 406.845 243.882 401.999 230.743C397.153 217.603 365.268 204.992 325.189 227.785C285.099 250.567 281.402 263.517 281.402 263.517C281.402 263.517 294.272 272.5 320.662 259.55C347.052 246.59 344.474 262.968 360.721 257.442C376.968 251.916 402.898 261.349 409.573 271.661C416.248 281.983 424.951 282.063 424.951 282.063" stroke="#8C3E02" stroke-width="2.5" stroke-miterlimit="10"/>
				<path d="M96.0957 449.903C131.318 410.684 147.676 383.205 166.152 357.115C184.627 331.015 209.508 322.442 233.809 300.109C258.11 277.776 282.182 262.338 282.182 262.338C282.182 262.338 337.369 238.816 369.325 227.795C380.556 223.928 403.748 235.929 403.748 235.929" stroke="#8C3E02" stroke-width="2.5" stroke-miterlimit="10"/>
				<path d="M194.699 375.361C194.699 375.361 211.457 361.532 222.638 350.63C233.819 339.728 251.805 327.648 278.225 331.505C304.644 335.362 305.894 320.623 330.065 320.443C354.236 320.263 358.703 316.906 358.703 316.906C358.703 316.906 349.41 339.319 332.793 346.223C316.176 353.128 297.94 362.581 278.565 368.416C259.19 374.252 194.709 375.361 194.709 375.361H194.699Z" stroke="#8C3E02" stroke-width="2.5" stroke-miterlimit="10"/>
				<path d="M2.48802 303.726C2.48802 303.726 23.9614 302.107 39.0697 314.698C54.1781 327.288 90.7798 292.475 107.197 293.224C68.6569 295.083 66.2687 308.333 41.6877 295.253C17.1067 282.183 2.47803 303.716 2.47803 303.716L2.48802 303.726Z" stroke="#8C3E02" stroke-width="2.5" stroke-miterlimit="10"/>
				<path d="M47.3135 297.921C47.3135 297.921 77.6101 288.878 107.517 268.763C137.434 248.649 157.298 261.499 159.617 286.25C161.935 311.001 168.81 333.053 140.541 353.887C140.541 353.887 147.726 292.655 107.197 293.224" stroke="#8C3E02" stroke-width="2.5" stroke-miterlimit="10"/>
				<path d="M364.708 6.64575C364.708 6.64575 351.878 43.4373 330.045 75.8223C308.212 108.197 306.573 102.212 301.637 113.113C296.701 124.015 282.821 162.275 297.97 173.577C313.907 185.458 329.965 192.742 340.976 170.269C351.988 147.797 347.222 114.412 359.452 92.7292C371.683 71.046 364.708 6.64575 364.708 6.64575Z" stroke="#8C3E02" stroke-width="2.5" stroke-miterlimit="10"/>
				<path d="M126.392 61.863C126.392 61.863 151.013 59.8745 184.897 112.074C218.781 164.274 239.335 164.224 238.446 224.917C238.446 224.917 240.025 251.277 222.208 279.924C204.392 308.562 198.267 327.847 198.267 327.847" stroke="#8C3E02" stroke-width="2.5" stroke-miterlimit="10"/>
				<path d="M364.708 6.64575C364.708 6.64575 359.922 60.3842 338.049 104.01C316.176 147.647 327.307 177.384 308.961 198.627C290.615 219.881 251.156 285.161 251.156 285.161" stroke="#8C3E02" stroke-width="2.5" stroke-miterlimit="10"/>
				<path d="M67.4778 300.209C67.4778 300.209 121.396 264.766 136.704 280.304C152.022 295.842 157.668 321.922 140.541 353.887C123.415 385.853 119.508 422.265 119.508 422.265" stroke="#8C3E02" stroke-width="2.5" stroke-miterlimit="10"/>
				<path d="M358.683 316.906C358.683 316.906 315.196 334.412 292.554 346.543C269.911 358.674 243.282 350.92 194.689 375.361C161.685 390.02 141.121 393.357 141.121 393.357" stroke="#8C3E02" stroke-width="2.5" stroke-miterlimit="10"/>
			</g>
		</symbol>

	</defs>
</svg>

<svg width="44" height="44" viewBox="0 0 44 44" fill="none" xmlns="http://www.w3.org/2000/svg">
<path d="M11 33L33 11M11 11L33 33" stroke="#D76F2C" stroke-width="2" stroke-linecap="round" stroke-linejoin="round"/>
</svg>
