<svg viewBox="0 0 24 24" xmlns="http://www.w3.org/2000/svg">
<path fill-rule="evenodd" clip-rule="evenodd" d="M1.51239 10.7489C7.41795 8.20867 11.3559 6.534 13.3263 5.72489C18.9521 3.4147 20.1211 3.01339 20.883 3.00014C21.0506 2.99723 21.4253 3.03823 21.668 3.23267C21.873 3.39685 21.9294 3.61863 21.9563 3.77429C21.9833 3.92995 22.0169 4.28455 21.9902 4.56163C21.6854 7.7241 20.3662 15.3986 19.6951 18.9406C19.4111 20.4394 18.852 20.9419 18.3107 20.9911C17.1343 21.098 16.2409 20.2235 15.1015 19.4861C13.3186 18.3323 12.3113 17.614 10.5807 16.488C8.58058 15.1868 9.87715 14.4716 11.017 13.3027C11.3153 12.9969 16.4986 8.34226 16.5989 7.92001C16.6115 7.86721 16.6231 7.67036 16.5046 7.56642C16.3862 7.46248 16.2114 7.49802 16.0852 7.52629C15.9064 7.56636 13.0581 9.42501 7.54035 13.1022C6.73187 13.6503 5.99958 13.9174 5.34347 13.9034C4.62016 13.888 3.2288 13.4996 2.19447 13.1677C0.925826 12.7606 -0.0824703 12.5453 0.00532971 11.8539C0.0510613 11.4937 0.553413 11.1254 1.51239 10.7489Z"/>
</svg>
